<svg width="24" height="24" viewBox="0 0 24 24" fill="none" xmlns="http://www.w3.org/2000/svg">
<path fill-rule="evenodd" clip-rule="evenodd" d="M10.0444 1.62931C10.5147 1.49248 11.0115 1.46419 11.4951 1.54666C11.9787 1.62912 12.4357 1.82009 12.8296 2.10431C13.2236 2.38853 13.5436 2.75812 13.764 3.18358C13.9845 3.60905 14.0994 4.07861 14.0995 4.55479V19.4459C14.0994 19.9221 13.9845 20.3917 13.764 20.8171C13.5436 21.2425 13.2236 21.6122 12.8296 21.8964C12.4357 22.1806 11.9787 22.3716 11.4951 22.4541C11.0115 22.5366 10.5147 22.5082 10.0444 22.3714L3.74441 20.5385C3.09561 20.3497 2.52684 19.9632 2.12246 19.4362C1.71807 18.9093 1.49963 18.2699 1.49951 17.613V6.38767C1.49963 5.73078 1.71807 5.09142 2.12246 4.56444C2.52684 4.03747 3.09561 3.65093 3.74441 3.46219L10.0444 1.62931ZM15.1495 3.85422C15.1495 3.58415 15.2602 3.32516 15.457 3.13419C15.6539 2.94324 15.921 2.83595 16.1995 2.83595H19.3495C20.1849 2.83595 20.9861 3.1578 21.5769 3.73068C22.1676 4.30357 22.4995 5.08057 22.4995 5.89075V6.90902C22.4995 7.17908 22.3888 7.43808 22.1919 7.62904C21.9951 7.82 21.7279 7.92728 21.4495 7.92728C21.171 7.92728 20.9039 7.82 20.707 7.62904C20.5102 7.43808 20.3995 7.17908 20.3995 6.90902V5.89075C20.3995 5.62069 20.2888 5.36169 20.0919 5.17073C19.8951 4.97977 19.628 4.87249 19.3495 4.87249H16.1995C15.921 4.87249 15.6539 4.7652 15.457 4.57425C15.2602 4.38328 15.1495 4.12428 15.1495 3.85422ZM21.4495 16.0734C21.7279 16.0734 21.9951 16.1807 22.1919 16.3717C22.3888 16.5626 22.4995 16.8216 22.4995 17.0917V18.1099C22.4995 18.9201 22.1676 19.6971 21.5769 20.27C20.9861 20.8429 20.1849 21.1647 19.3495 21.1647H16.1995C15.921 21.1647 15.6539 21.0574 15.457 20.8665C15.2602 20.6756 15.1495 20.4165 15.1495 20.1465C15.1495 19.8764 15.2602 19.6174 15.457 19.4265C15.6539 19.2355 15.921 19.1282 16.1995 19.1282H19.3495C19.628 19.1282 19.8951 19.0209 20.0919 18.83C20.2888 18.639 20.3995 18.38 20.3995 18.1099V17.0917C20.3995 16.8216 20.5102 16.5626 20.707 16.3717C20.9039 16.1807 21.171 16.0734 21.4495 16.0734ZM8.8495 10.9821C8.57102 10.9821 8.30395 11.0894 8.10704 11.2803C7.91013 11.4713 7.7995 11.7303 7.7995 12.0003C7.7995 12.2704 7.91013 12.5294 8.10704 12.7204C8.30395 12.9113 8.57102 13.0186 8.8495 13.0186H8.85055C9.12903 13.0186 9.3961 12.9113 9.59302 12.7204C9.78992 12.5294 9.90055 12.2704 9.90055 12.0003C9.90055 11.7303 9.78992 11.4713 9.59302 11.2803C9.3961 11.0894 9.12903 10.9821 8.85055 10.9821H8.8495Z" fill="#3C5163"/>
<path fill-rule="evenodd" clip-rule="evenodd" d="M18.6074 9.2438C19.0175 8.84614 19.6823 8.84614 20.0924 9.2438L22.192 11.28L22.1946 11.2825C22.2941 11.3796 22.3694 11.4913 22.4202 11.6106C22.4715 11.7306 22.4999 11.8623 22.4999 12.0004C22.4999 12.1384 22.4715 12.2701 22.4202 12.3901C22.3694 12.5094 22.2941 12.6211 22.1946 12.7182L22.1923 12.7204L20.0924 14.7569C19.6823 15.1545 19.0175 15.1545 18.6074 14.7569C18.1974 14.3593 18.1974 13.7145 18.6074 13.3169L18.915 13.0186H16.1999C15.62 13.0186 15.1499 12.5627 15.1499 12.0004C15.1499 11.438 15.62 10.9821 16.1999 10.9821H18.915L18.6074 10.6838C18.1974 10.2862 18.1974 9.64146 18.6074 9.2438Z" fill="#3C5163"/>
</svg>
