<svg width="20" height="20" viewBox="0 0 20 20" fill="none" xmlns="http://www.w3.org/2000/svg">
<path fill-rule="evenodd" clip-rule="evenodd" d="M9.99995 1.25C7.51982 1.25 5.50928 3.20876 5.50928 5.625C5.50928 8.04124 7.51982 10 9.99995 10C12.4801 10 14.4906 8.04124 14.4906 5.625C14.4906 3.20876 12.4801 1.25 9.99995 1.25Z" fill="white"/>
<path fill-rule="evenodd" clip-rule="evenodd" d="M10 10.875C6.44054 10.875 4.15107 12.1404 2.93921 14.0731C2.18708 15.2727 2.47496 16.521 3.24391 17.3915C3.98156 18.2266 5.17008 18.75 6.40745 18.75H13.5925C14.8299 18.75 16.0184 18.2266 16.7561 17.3915C17.525 16.521 17.813 15.2727 17.0608 14.0731C15.8489 12.1404 13.5595 10.875 10 10.875Z" fill="white"/>
</svg>
