<svg width="24" height="24" viewBox="0 0 24 24" fill="none" xmlns="http://www.w3.org/2000/svg">
<path d="M22.1808 20.6277L17.0039 15.4295C18.3354 13.9042 19.0653 11.9735 19.0643 9.97874C19.0643 5.30364 15.1245 1.5 10.2821 1.5C5.43974 1.5 1.5 5.30364 1.5 9.97874C1.5 14.6538 5.43974 18.4575 10.2821 18.4575C12.1 18.4575 13.8324 17.9281 15.3135 16.9232L20.5297 22.1609C20.7478 22.3795 21.041 22.5 21.3553 22.5C21.6527 22.5 21.9349 22.3905 22.1491 22.1914C22.3677 21.9879 22.4938 21.709 22.4998 21.4159C22.5057 21.1227 22.391 20.8393 22.1808 20.6277ZM10.2821 3.71185C13.8614 3.71185 16.7733 6.5231 16.7733 9.97874C16.7733 13.4344 13.8614 16.2456 10.2821 16.2456C6.70284 16.2456 3.79099 13.4344 3.79099 9.97874C3.79099 6.5231 6.70284 3.71185 10.2821 3.71185Z" fill="#B9B9B9"/>
</svg>
