<svg width="24" height="24" viewBox="0 0 24 24" fill="none" xmlns="http://www.w3.org/2000/svg">
<rect width="24" height="24" fill="white"/>
<path fill-rule="evenodd" clip-rule="evenodd" d="M17.5074 6.95881L22.2803 11.4959C22.5732 11.7743 22.5732 12.2257 22.2803 12.5041L17.5074 17.0412C17.2145 17.3196 16.7396 17.3196 16.4467 17.0412C16.1538 16.7628 16.1538 16.3114 16.4467 16.0329L19.9393 12.7129L2.25 12.7129C1.83579 12.7129 1.5 12.3937 1.5 12C1.5 11.6063 1.83579 11.2871 2.25 11.2871L19.9393 11.2871L16.4467 7.96705C16.1538 7.68863 16.1538 7.23723 16.4467 6.95881C16.7396 6.6804 17.2145 6.6804 17.5074 6.95881Z" fill="#5FAEE3"/>
</svg>
