<svg width="24" height="24" viewBox="0 0 24 24" fill="none" xmlns="http://www.w3.org/2000/svg">
<path d="M22.297 5.90301L18.097 1.70301C18.0316 1.63813 17.954 1.58681 17.8687 1.55197C17.7834 1.51714 17.6921 1.49948 17.6 1.50001H16.2V7.10001C16.2 7.47131 16.0525 7.82741 15.7899 8.08996C15.5274 8.35251 15.1713 8.50001 14.8 8.50001H9.2C8.82869 8.50001 8.4726 8.35251 8.21005 8.08996C7.9475 7.82741 7.8 7.47131 7.8 7.10001V1.50001H3.6C3.04304 1.50001 2.5089 1.72126 2.11508 2.11509C1.72125 2.50891 1.5 3.04306 1.5 3.60001V20.4C1.5 20.957 1.72125 21.4911 2.11508 21.8849C2.5089 22.2787 3.04304 22.5 3.6 22.5H5V16.2C5 15.643 5.22125 15.1089 5.61507 14.7151C6.0089 14.3213 6.54304 14.1 7.1 14.1H16.9C17.4569 14.1 17.9911 14.3213 18.3849 14.7151C18.7787 15.1089 19 15.643 19 16.2V22.5H20.4C20.9569 22.5 21.4911 22.2787 21.8849 21.8849C22.2787 21.4911 22.5 20.957 22.5 20.4V6.40001C22.5005 6.30788 22.4829 6.21656 22.448 6.13127C22.4132 6.04599 22.3619 5.96842 22.297 5.90301Z" fill="white"/>
<path d="M9.1999 1.5H14.7999V7.1H9.1999V1.5ZM16.8999 15.5H7.0999C6.91425 15.5 6.7362 15.5737 6.60493 15.705C6.47365 15.8363 6.3999 16.0143 6.3999 16.2V22.5H17.5999V16.2C17.5999 16.0143 17.5261 15.8363 17.3949 15.705C17.2636 15.5737 17.0855 15.5 16.8999 15.5Z" fill="white"/>
</svg>
