<svg width="24" height="24" viewBox="0 0 24 24" fill="none" xmlns="http://www.w3.org/2000/svg">
<path d="M22.2754 13.8669C22.1991 14.2212 21.8712 14.4649 21.5055 14.4649C21.4536 14.4649 21.4001 14.4604 21.3474 14.4492C20.9219 14.367 20.6466 13.9715 20.7347 13.5671C21.7768 8.72091 18.4783 3.9719 13.3795 2.98068C12.954 2.89846 12.6787 2.50302 12.7668 2.09861C12.8533 1.69345 13.2725 1.43032 13.6949 1.51629C19.6423 2.6727 23.4921 8.21334 22.2754 13.8669ZM12.1683 9.08869C12.9988 9.21054 13.7295 9.63289 14.2265 10.2765C14.7228 10.9209 14.9257 11.7103 14.7975 12.4996C14.7315 12.9078 15.0256 13.2898 15.455 13.3526C15.4959 13.3585 15.536 13.3615 15.5754 13.3615C15.9568 13.3615 16.2919 13.0977 16.3516 12.7284C16.5443 11.5443 16.2399 10.3602 15.4951 9.39368C14.7503 8.42788 13.6532 7.79473 12.4074 7.61159C11.9772 7.54954 11.5761 7.82912 11.51 8.23652C11.444 8.64392 11.7381 9.0259 12.1675 9.08944L12.1683 9.08869ZM13.0641 4.44658C12.6394 4.3636 12.2234 4.62449 12.1361 5.0289C12.0488 5.43331 12.3233 5.828 12.7487 5.91097C16.1471 6.57178 18.3469 9.73829 17.6517 12.9683C17.5644 13.3727 17.8389 13.7674 18.2644 13.8504C18.3171 13.8609 18.3705 13.8661 18.4224 13.8661C18.7882 13.8661 19.1161 13.6224 19.1924 13.2681C20.0615 9.22997 17.3127 5.27259 13.0641 4.44658ZM15.595 16.158C15.2671 15.646 14.7496 15.2864 14.1369 15.1451C13.5242 15.0038 12.8903 15.0973 12.3524 15.4083L11.3401 15.9936C11.0295 16.173 10.6362 16.1311 10.3846 15.8941C9.58157 15.1421 8.87766 14.2967 8.29173 13.3817C7.70423 12.463 7.23705 11.4785 6.90358 10.4559C6.80056 10.1405 6.94684 9.78389 7.25042 9.60747L8.26184 9.02216C9.37315 8.37929 9.72707 6.99712 9.05148 5.94013L7.82456 4.02497C7.49659 3.51292 6.97909 3.15336 6.36642 3.01208C5.75532 2.87155 5.12062 2.96424 4.58188 3.27521L3.01206 4.18345C2.04861 4.74035 1.46976 5.74278 1.50122 6.79903C1.56571 9.00123 2.09659 12.3359 4.25864 15.7132C5.45724 17.5843 7.65468 20.2178 11.3173 22.1352C11.7829 22.3789 12.2997 22.5 12.818 22.5C13.3882 22.5 13.9584 22.3535 14.4625 22.062L16.03 21.1552C17.1413 20.5123 17.4952 19.1302 16.8196 18.0739L15.5927 16.158H15.595Z" fill="#3C5163"/>
</svg>
