<svg width="24" height="24" viewBox="0 0 24 24" fill="none" xmlns="http://www.w3.org/2000/svg">
<path d="M19.5625 9.375H14.1807C12.978 9.375 12 8.44148 12 7.29346V2.15625C12 1.92 12.0653 1.69523 12.1835 1.5H5.24316C4.41988 1.5 3.75 2.13943 3.75 2.92529V21.0747C3.75 21.8606 4.41988 22.5 5.24316 22.5H18.7568C19.5801 22.5 20.25 21.8606 20.25 21.0747V9.19986C20.041 9.31499 19.8038 9.3754 19.5625 9.375ZM9.45152 13.5049C9.72008 13.2485 10.1549 13.2485 10.4235 13.5049L11.3125 14.3531V10.3594C11.3125 9.9968 11.6202 9.70312 12 9.70312C12.3798 9.70312 12.6875 9.9968 12.6875 10.3594V14.3531L13.5765 13.5049C13.8446 13.2485 14.2804 13.2485 14.5485 13.5049C14.817 13.7608 14.817 14.1767 14.5485 14.4326L12.486 16.4014C12.341 16.5433 12.1323 16.6074 11.9338 16.5909C11.5896 16.547 11.6981 16.5771 9.45152 14.4326C9.18297 14.1767 9.18297 13.7608 9.45152 13.5049ZM15.4375 19.2188H8.5625C8.18266 19.2188 7.875 18.9251 7.875 18.5625C7.875 18.1999 8.18266 17.9062 8.5625 17.9062H15.4375C15.8173 17.9062 16.125 18.1999 16.125 18.5625C16.125 18.9251 15.8173 19.2188 15.4375 19.2188ZM14.1807 8.0625H19.5625L13.375 2.15625V7.29346C13.375 7.71756 13.7364 8.0625 14.1807 8.0625Z" fill="#3C5163"/>
</svg>
