<svg width="22" height="14" viewBox="0 0 22 14" xmlns="http://www.w3.org/2000/svg">
<path fill-rule="evenodd" clip-rule="evenodd" d="M11.0002 0.250002C8.91677 0.248861 6.87151 0.768849 5.07934 1.75532C3.28716 2.74178 1.81425 4.1583 0.815408 5.856C0.608783 6.20678 0.500488 6.60018 0.500488 7C0.500488 7.39982 0.608783 7.79322 0.815408 8.144C1.81425 9.8417 3.28716 11.2582 5.07934 12.2447C6.87151 13.2312 8.91677 13.7511 11.0002 13.75C15.3952 13.75 19.2184 11.483 21.1849 8.144C21.6049 7.431 21.6049 6.569 21.1849 5.856C20.1861 4.1583 18.7132 2.74178 16.921 1.75532C15.1288 0.768849 13.0836 0.248861 11.0002 0.250002ZM11.0002 4.75C10.5941 4.74993 10.1946 4.8446 9.83824 5.02532C9.48189 5.20604 9.18016 5.46701 8.96076 5.78426C8.74137 6.1015 8.61135 6.46485 8.58264 6.84093C8.55394 7.21701 8.62747 7.59376 8.79648 7.93656C8.96549 8.27937 9.22457 8.57724 9.54991 8.80282C9.87525 9.02841 10.2564 9.17446 10.6584 9.22756C11.0604 9.28067 11.4703 9.23913 11.8505 9.10676C12.2307 8.97439 12.5689 8.75543 12.8342 8.47C12.469 8.40114 12.1407 8.21718 11.9049 7.94928C11.6691 7.68137 11.5403 7.34601 11.5403 7C11.5403 6.65399 11.6691 6.31863 11.9049 6.05072C12.1407 5.78282 12.469 5.59885 12.8342 5.53C12.607 5.28504 12.3255 5.08852 12.009 4.9539C11.6924 4.81928 11.3483 4.74973 11.0002 4.75ZM6.96159 7C6.96159 6.00544 7.38708 5.05161 8.14446 4.34835C8.90184 3.64509 9.92907 3.25 11.0002 3.25C12.0713 3.25 13.0985 3.64509 13.8559 4.34835C14.6133 5.05161 15.0387 6.00544 15.0387 7C15.0387 7.99456 14.6133 8.94839 13.8559 9.65165C13.0985 10.3549 12.0713 10.75 11.0002 10.75C9.92907 10.75 8.90184 10.3549 8.14446 9.65165C7.38708 8.94839 6.96159 7.99456 6.96159 7Z"/>
</svg>
