<svg width="24" height="24" viewBox="0 0 24 24" xmlns="http://www.w3.org/2000/svg">
<path d="M12.0012 6.85706L4.51167 13.2302C4.51167 13.2391 4.50948 13.2524 4.50511 13.2704C4.50082 13.2883 4.49854 13.3013 4.49854 13.3105V19.764C4.49854 19.997 4.58107 20.1989 4.74608 20.369C4.91106 20.5391 5.10641 20.6247 5.3322 20.6247H10.3338V15.4618H13.6687V20.6249H18.6703C18.896 20.6249 19.0916 20.5395 19.2564 20.369C19.4214 20.1991 19.5042 19.997 19.5042 19.764V13.3105C19.5042 13.2747 19.4994 13.2477 19.4911 13.2302L12.0012 6.85706Z"/>
<path d="M22.3551 11.7782L19.5027 9.3312V3.84568C19.5027 3.72027 19.4637 3.61714 19.3853 3.53643C19.3076 3.45581 19.2076 3.4155 19.0859 3.4155H16.585C16.4634 3.4155 16.3635 3.45581 16.2853 3.53643C16.2072 3.61714 16.1682 3.72032 16.1682 3.84568V6.46739L12.99 3.72456C12.7125 3.4915 12.3824 3.375 12.0003 3.375C11.6182 3.375 11.2882 3.4915 11.0104 3.72456L1.64474 11.7782C1.55792 11.8497 1.51034 11.9461 1.50149 12.0671C1.49268 12.188 1.52302 12.2937 1.59259 12.3832L2.40016 13.3782C2.46974 13.4588 2.5608 13.5081 2.67371 13.5261C2.77796 13.5352 2.88221 13.5037 2.98646 13.432L12 5.67414L21.0137 13.432C21.0833 13.4945 21.1743 13.5258 21.2873 13.5258H21.3264C21.4391 13.5081 21.53 13.4584 21.6 13.378L22.4076 12.3832C22.4771 12.2934 22.5075 12.188 22.4984 12.0669C22.4896 11.9462 22.4418 11.8499 22.3551 11.7782Z"/>
</svg>
