<svg width="48" height="48" viewBox="0 0 48 48" fill="none" xmlns="http://www.w3.org/2000/svg">
<path fill-rule="evenodd" clip-rule="evenodd" d="M24 45C35.598 45 45 35.598 45 24C45 12.402 35.598 3 24 3C12.402 3 3 12.402 3 24C3 35.598 12.402 45 24 45ZM22.5 15C22.5 14.1716 23.1716 13.5 24 13.5C24.8284 13.5 25.5 14.1716 25.5 15V22.5H33C33.8284 22.5 34.5 23.1716 34.5 24C34.5 24.8284 33.8284 25.5 33 25.5H25.5V33C25.5 33.8284 24.8284 34.5 24 34.5C23.1716 34.5 22.5 33.8284 22.5 33V25.5H15C14.1716 25.5 13.5 24.8284 13.5 24C13.5 23.1716 14.1716 22.5 15 22.5H22.5V15Z" fill="#3C5163"/>
</svg>
