<svg width="24" height="24" viewBox="0 0 24 24" fill="none" xmlns="http://www.w3.org/2000/svg">
<path d="M22.429 7.64006L21.2022 16.664C21.1716 17.1408 21.0409 17.6051 20.819 18.0249C20.5972 18.4447 20.2895 18.81 19.9171 19.0957C19.8702 19.1291 19.8155 19.1489 19.7586 19.1531C19.7017 19.1573 19.6448 19.1457 19.5937 19.1194C19.5427 19.0932 19.4995 19.0533 19.4686 19.004C19.4377 18.9546 19.4203 18.8977 19.4182 18.839V9.8035C19.4712 9.21436 19.3973 8.62046 19.2018 8.06403C19.0063 7.5076 18.6941 7.00231 18.2873 6.5841C17.8805 6.16589 17.3891 5.84504 16.8481 5.64435C16.3071 5.44367 15.7297 5.36808 15.1571 5.42298H5.5349C5.2282 5.42298 5.22104 5.13901 5.24251 5.0128C5.32882 4.15724 5.7368 3.37027 6.37935 2.81991C6.74214 2.56975 7.14994 2.39685 7.57871 2.31141C8.00749 2.22597 8.44855 2.22972 8.87589 2.32244L19.6728 3.87902C20.1098 3.91172 20.536 4.0341 20.9263 4.23893C21.3166 4.44377 21.6632 4.72692 21.9454 5.0717C22.1891 5.44469 22.3574 5.86422 22.4405 6.30541C22.5235 6.74659 22.5196 7.20045 22.429 7.64006ZM17.8816 9.8035V18.92C17.9343 19.3008 17.9002 19.689 17.7819 20.0539C17.6637 20.4188 17.4645 20.7504 17.2003 21.0225C16.936 21.2945 16.6138 21.4997 16.2592 21.6216C15.9046 21.7435 15.5273 21.7789 15.1571 21.725H4.25085C3.88046 21.7795 3.50282 21.7445 3.14785 21.6229C2.79288 21.5012 2.47034 21.2961 2.20577 21.0239C1.9412 20.7517 1.74187 20.4199 1.62359 20.0547C1.5053 19.6896 1.4713 19.3011 1.52428 18.92V9.8035C1.47165 9.42261 1.50592 9.03435 1.62436 8.66945C1.74281 8.30454 1.94218 7.97301 2.20671 7.70108C2.47123 7.42914 2.79365 7.22428 3.14844 7.10271C3.50323 6.98113 3.88065 6.94617 4.25085 7.0006H15.1571C15.5271 6.94676 15.9042 6.98214 16.2586 7.10396C16.6131 7.22578 16.9351 7.4307 17.1993 7.70253C17.4636 7.97437 17.6628 8.30567 17.7812 8.67029C17.8996 9.03491 17.934 9.42285 17.8816 9.8035ZM13.0255 14.3628C13.0255 14.1536 12.9448 13.953 12.801 13.805C12.6572 13.6571 12.4622 13.574 12.2588 13.574H10.4697V11.7334C10.4697 11.5242 10.3889 11.3236 10.2451 11.1757C10.1013 11.0277 9.90631 10.9446 9.70296 10.9446C9.49961 10.9446 9.30458 11.0277 9.16079 11.1757C9.01699 11.3236 8.93621 11.5242 8.93621 11.7334V13.574H7.14712C6.94377 13.574 6.74874 13.6571 6.60495 13.805C6.46115 13.953 6.38037 14.1536 6.38037 14.3628C6.38037 14.572 6.46115 14.7726 6.60495 14.9206C6.74874 15.0685 6.94377 15.1516 7.14712 15.1516H8.93621V16.9922C8.93621 17.2014 9.01699 17.402 9.16079 17.5499C9.30458 17.6979 9.49961 17.781 9.70296 17.781C9.90631 17.781 10.1013 17.6979 10.2451 17.5499C10.3889 17.402 10.4697 17.2014 10.4697 16.9922V15.1516H12.2588C12.4622 15.1516 12.6572 15.0685 12.801 14.9206C12.9448 14.7726 13.0255 14.572 13.0255 14.3628Z" fill="#3C5163"/>
</svg>
