<svg width="200" height="52" viewBox="0 0 200 52" fill="none" xmlns="http://www.w3.org/2000/svg">
<path d="M25.8375 3.84C24.4837 3.84 23.1586 3.96137 21.8725 4.19371L20.8664 0.473385C22.4751 0.16275 24.1371 0 25.8375 0C40.1072 0 51.675 11.4615 51.675 25.6H47.7994C47.7994 13.5823 37.9667 3.84 25.8375 3.84Z" fill="white"/>
<path d="M1.96722 15.7848C0.699703 18.8075 0 22.1228 0 25.6C0 28.0416 0.344975 30.4034 0.989267 32.64H5.05046C4.28888 30.4319 3.87563 28.0638 3.87563 25.6C3.87563 22.4639 4.54523 19.4827 5.75051 16.7892L1.96722 15.7848Z" fill="#5FAEE3"/>
<path d="M12.5987 42.9636C10.2612 41.2112 8.28855 39.0061 6.81373 36.48H2.44281C4.45905 40.7287 7.61955 44.3389 11.5308 46.9206L12.5987 42.9636Z" fill="white"/>
<path d="M25.8375 10.24C21.1548 10.24 16.957 12.2971 14.1145 15.5489L10.7089 13.6008C14.2602 9.21089 19.7175 6.39996 25.8375 6.39996C31.9575 6.39996 37.4148 9.21089 40.9661 13.6008L37.5605 15.5489C34.718 12.2971 30.5202 10.24 25.8375 10.24Z" fill="#5FAEE3"/>
<path d="M11.9584 18.7496L8.59632 16.8264C7.23041 19.4561 6.45938 22.4388 6.45938 25.6C6.45938 34.1164 13.1613 40.6337 18.9301 46.2437C21.0066 48.2631 22.9622 50.1649 24.4409 52V44.8C24.7288 44.8188 25.0661 44.8122 25.3884 44.806C25.544 44.8029 25.6961 44.8 25.8375 44.8C36.5397 44.8 45.2156 36.2038 45.2156 25.6C45.2156 22.4388 44.4446 19.4561 43.0787 16.8264L39.7167 18.7496C40.7556 20.8119 41.34 23.1383 41.34 25.6C41.34 34.0831 34.3993 40.96 25.8375 40.96C17.2757 40.96 10.335 34.0831 10.335 25.6C10.335 23.1383 10.9194 20.8119 11.9584 18.7496Z" fill="#2B81C0"/>
<path d="M36.5378 30.1068C36.1671 30.9707 35.6931 31.7824 35.1286 32.5258C34.4366 33.4371 33.6088 34.2457 32.669 34.9219C30.9626 36.1496 28.9512 36.8943 26.8504 37.0763C24.7496 37.2584 22.6383 36.8708 20.7427 35.9552C18.8471 35.0397 17.2385 33.6305 16.0891 31.8786C14.9398 30.1267 14.293 28.0981 14.218 26.0099C14.1429 23.9218 14.6425 21.8527 15.6633 20.0243C16.684 18.1959 18.1874 16.677 20.0125 15.6301C21.0191 15.0528 22.1027 14.631 23.2259 14.3745C24.1392 14.1659 25.0787 14.0666 26.0243 14.0816L25.97 17.4307C24.4745 17.4069 23.0006 17.7865 21.7061 18.529C20.4117 19.2714 19.3454 20.3487 18.6215 21.6455C17.8975 22.9423 17.5432 24.4098 17.5964 25.8908C17.6496 27.3718 18.1084 28.8106 18.9235 30.0531C19.7387 31.2956 20.8796 32.2951 22.224 32.9444C23.5685 33.5938 25.0659 33.8687 26.5559 33.7396C28.0459 33.6105 29.4724 33.0823 30.6827 32.2115C31.893 31.3408 32.8415 30.1603 33.4266 28.7965L36.5378 30.1068Z" fill="white"/>
<path d="M61.0325 26.0001C61.0325 24.07 61.4608 22.346 62.3174 20.8282C63.1926 19.2916 64.3751 18.1017 65.8648 17.2584C67.3731 16.3965 69.0584 15.9655 70.9206 15.9655C73.0993 15.9655 75.008 16.5276 76.6467 17.652C78.2854 18.7763 79.4306 20.3316 80.0824 22.3179H75.5853C75.1384 21.381 74.5052 20.6783 73.6859 20.2098C72.8851 19.7413 71.9541 19.5071 70.8926 19.5071C69.7567 19.5071 68.7418 19.7788 67.848 20.3222C66.9728 20.8469 66.2838 21.5965 65.781 22.5709C65.2968 23.5453 65.0547 24.6884 65.0547 26.0001C65.0547 27.293 65.2968 28.4361 65.781 29.4293C66.2838 30.4037 66.9728 31.1626 67.848 31.706C68.7418 32.2307 69.7567 32.4931 70.8926 32.4931C71.9541 32.4931 72.8851 32.2588 73.6859 31.7903C74.5052 31.3031 75.1384 30.5911 75.5853 29.6541H80.0824C79.4306 31.6592 78.2854 33.2239 76.6467 34.3482C75.0266 35.4538 73.1179 36.0066 70.9206 36.0066C69.0584 36.0066 67.3731 35.5849 65.8648 34.7417C64.3751 33.8797 63.1926 32.6898 62.3174 31.172C61.4608 29.6541 61.0325 27.9302 61.0325 26.0001Z" fill="white"/>
<path d="M82.4169 27.9958C82.4169 26.4217 82.7242 25.0257 83.3387 23.8076C83.9718 22.5896 84.8191 21.6527 85.8806 20.9968C86.9606 20.341 88.1617 20.013 89.4838 20.013C90.6384 20.013 91.644 20.2473 92.5005 20.7157C93.3758 21.1842 94.0741 21.7745 94.5955 22.4866V20.266H98.534V35.8379H94.5955V33.5612C94.0927 34.292 93.3944 34.901 92.5005 35.3882C91.6253 35.8567 90.6105 36.0909 89.4559 36.0909C88.1524 36.0909 86.9606 35.7536 85.8806 35.079C84.8191 34.4044 83.9718 33.4581 83.3387 32.2401C82.7242 31.0033 82.4169 29.5885 82.4169 27.9958ZM94.5955 28.052C94.5955 27.0963 94.4093 26.2812 94.0368 25.6066C93.6644 24.9132 93.1616 24.3885 92.5285 24.0325C91.8953 23.6577 91.2157 23.4703 90.4894 23.4703C89.7632 23.4703 89.0928 23.6484 88.4783 24.0044C87.8638 24.3604 87.361 24.8851 86.9699 25.5785C86.5975 26.253 86.4113 27.0588 86.4113 27.9958C86.4113 28.9327 86.5975 29.7572 86.9699 30.4693C87.361 31.1626 87.8638 31.6967 88.4783 32.0714C89.1114 32.4462 89.7818 32.6336 90.4894 32.6336C91.2157 32.6336 91.8953 32.4556 92.5285 32.0995C93.1616 31.7248 93.6644 31.2001 94.0368 30.5255C94.4093 29.8322 94.5955 29.0076 94.5955 28.052Z" fill="white"/>
<path d="M106.264 15.0379V35.8379H102.353V15.0379H106.264Z" fill="white"/>
<path d="M114.038 15.0379V35.8379H110.127V15.0379H114.038Z" fill="white"/>
<path d="M121.812 22.5147C122.315 21.8026 123.004 21.2123 123.879 20.7439C124.773 20.2566 125.788 20.013 126.924 20.013C128.246 20.013 129.438 20.341 130.499 20.9968C131.579 21.6527 132.426 22.5896 133.041 23.8076C133.674 25.0069 133.991 26.403 133.991 27.9958C133.991 29.5885 133.674 31.0033 133.041 32.2401C132.426 33.4581 131.579 34.4044 130.499 35.079C129.438 35.7536 128.246 36.0909 126.924 36.0909C125.788 36.0909 124.782 35.8567 123.907 35.3882C123.05 34.9197 122.352 34.3295 121.812 33.6174V43.2585H117.902V20.266H121.812V22.5147ZM129.996 27.9958C129.996 27.0588 129.801 26.253 129.41 25.5785C129.037 24.8851 128.535 24.3604 127.901 24.0044C127.287 23.6484 126.617 23.4703 125.89 23.4703C125.183 23.4703 124.512 23.6577 123.879 24.0325C123.265 24.3885 122.762 24.9132 122.371 25.6066C121.998 26.2999 121.812 27.115 121.812 28.052C121.812 28.9889 121.998 29.804 122.371 30.4974C122.762 31.1907 123.265 31.7248 123.879 32.0995C124.512 32.4556 125.183 32.6336 125.89 32.6336C126.617 32.6336 127.287 32.4462 127.901 32.0714C128.535 31.6967 129.037 31.1626 129.41 30.4693C129.801 29.7759 129.996 28.9514 129.996 27.9958Z" fill="white"/>
<path d="M151.441 20.266V35.8379H147.503V33.8704C147 34.5449 146.339 35.079 145.519 35.4725C144.719 35.8473 143.843 36.0347 142.894 36.0347C141.683 36.0347 140.613 35.7817 139.681 35.2758C138.75 34.7511 138.015 33.9922 137.475 32.999C136.953 31.9871 136.693 30.7878 136.693 29.4012V20.266H140.603V28.839C140.603 30.0758 140.911 31.0314 141.525 31.706C142.14 32.3619 142.978 32.6898 144.039 32.6898C145.119 32.6898 145.966 32.3619 146.581 31.706C147.195 31.0314 147.503 30.0758 147.503 28.839V20.266H151.441Z" fill="white"/>
<path d="M159.21 22.6833C159.713 21.8588 160.365 21.2123 161.165 20.7439C161.985 20.2754 162.916 20.0412 163.958 20.0412V24.173H162.925C161.696 24.173 160.765 24.4635 160.132 25.0444C159.517 25.6253 159.21 26.6372 159.21 28.0801V35.8379H155.299V20.266H159.21V22.6833Z" fill="white"/>
<path d="M168.576 18.4109C167.887 18.4109 167.309 18.1954 166.844 17.7644C166.397 17.3147 166.173 16.7619 166.173 16.106C166.173 15.4502 166.397 14.9067 166.844 14.4757C167.309 14.026 167.887 13.8011 168.576 13.8011C169.265 13.8011 169.833 14.026 170.28 14.4757C170.745 14.9067 170.978 15.4502 170.978 16.106C170.978 16.7619 170.745 17.3147 170.28 17.7644C169.833 18.1954 169.265 18.4109 168.576 18.4109ZM170.503 20.266V35.8379H166.592V20.266H170.503Z" fill="white"/>
<path d="M178.92 23.4985V31.0314C178.92 31.5561 179.041 31.9403 179.283 32.1839C179.543 32.4087 179.972 32.5212 180.568 32.5212H182.383V35.8379H179.925C176.629 35.8379 174.981 34.2264 174.981 31.0033V23.4985H173.138V20.266H174.981V16.4152H178.92V20.266H182.383V23.4985H178.92Z" fill="white"/>
<path d="M200 20.266L190.419 43.2023H186.257L189.609 35.4444L183.408 20.266H187.794L191.788 31.1439L195.838 20.266H200Z" fill="white"/>
</svg>
