<svg width="180" height="46" viewBox="0 0 180 46" fill="none" xmlns="http://www.w3.org/2000/svg">
<path d="M23.2538 3.39693C22.0354 3.39693 20.8427 3.50429 19.6852 3.70982L18.7797 0.418764C20.2276 0.143971 21.7234 0 23.2538 0C36.0964 0 46.5075 10.139 46.5075 22.6462H43.0195C43.0195 12.0151 34.17 3.39693 23.2538 3.39693Z" fill="#3C5163"/>
<path d="M1.77049 13.9634C0.629733 16.6374 0 19.5702 0 22.6462C0 24.806 0.310478 26.8953 0.89034 28.8739H4.54541C3.85999 26.9205 3.48806 24.8256 3.48806 22.6462C3.48806 19.8719 4.09071 17.2347 5.17546 14.852L1.77049 13.9634Z" fill="#5FAEE3"/>
<path d="M11.3388 38.0062C9.23506 36.4561 7.4597 34.5054 6.13236 32.2708H2.19853C4.01315 36.0293 6.85759 39.2228 10.3777 41.5066L11.3388 38.0062Z" fill="#3C5163"/>
<path d="M23.2538 9.05843C19.0393 9.05843 15.2613 10.8782 12.703 13.7548L9.638 12.0315C12.8342 8.1481 17.7458 5.6615 23.2538 5.6615C28.7617 5.6615 33.6733 8.1481 36.8695 12.0315L33.8045 13.7548C31.2462 10.8782 27.4682 9.05843 23.2538 9.05843Z" fill="#5FAEE3"/>
<path d="M10.7625 16.5862L7.73669 14.8849C6.50737 17.2112 5.81344 19.8497 5.81344 22.6461C5.81344 30.1799 11.8451 35.9452 17.0371 40.9079C18.9059 42.6943 20.666 44.3766 21.9968 46V39.6308C22.2559 39.6474 22.5595 39.6416 22.8495 39.636C22.9896 39.6334 23.1265 39.6308 23.2538 39.6308C32.8858 39.6308 40.6941 32.0265 40.6941 22.6461C40.6941 19.8497 40.0001 17.2112 38.7708 14.8849L35.745 16.5862C36.68 18.4106 37.206 20.4685 37.206 22.6461C37.206 30.1504 30.9594 36.2338 23.2538 36.2338C15.5481 36.2338 9.3015 30.1504 9.3015 22.6461C9.3015 20.4685 9.8275 18.4106 10.7625 16.5862Z" fill="#2B81C0"/>
<path d="M32.884 26.6329C32.5504 27.3972 32.1238 28.1152 31.6157 28.7729C30.993 29.579 30.2479 30.2943 29.4021 30.8924C27.8663 31.9785 26.0561 32.6373 24.1654 32.7983C22.2746 32.9593 20.3745 32.6165 18.6684 31.8066C16.9624 30.9966 15.5146 29.75 14.4802 28.2003C13.4458 26.6506 12.8637 24.856 12.7962 23.0088C12.7287 21.1616 13.1783 19.3313 14.0969 17.7138C15.0156 16.0964 16.3686 14.7527 18.0112 13.8267C18.9172 13.3159 19.8924 12.9428 20.9033 12.7159C21.7253 12.5314 22.5708 12.4435 23.4218 12.4568L23.373 15.4194C22.027 15.3984 20.7005 15.7342 19.5355 16.391C18.3705 17.0478 17.4109 18.0008 16.7593 19.148C16.1078 20.2951 15.7889 21.5933 15.8368 22.9034C15.8847 24.2135 16.2975 25.4863 17.0312 26.5854C17.7648 27.6846 18.7916 28.5687 20.0016 29.1432C21.2116 29.7176 22.5593 29.9607 23.9003 29.8465C25.2413 29.7323 26.5252 29.2651 27.6144 28.4948C28.7037 27.7245 29.5573 26.6803 30.0839 25.4738L32.884 26.6329Z" fill="#3C5163"/>
<path d="M54.9297 23C54.9297 21.2926 55.3152 19.7675 56.0861 18.4248C56.8738 17.0656 57.938 16.0129 59.2788 15.267C60.6363 14.5045 62.153 14.1232 63.829 14.1232C65.7898 14.1232 67.5077 14.6205 68.9825 15.6151C70.4573 16.6097 71.488 17.9856 72.0746 19.7427H68.0272C67.625 18.9138 67.0552 18.2922 66.3177 17.8778C65.5971 17.4634 64.7591 17.2562 63.8038 17.2562C62.7815 17.2562 61.8681 17.4966 61.0637 17.9773C60.276 18.4414 59.6559 19.1045 59.2034 19.9665C58.7676 20.8284 58.5497 21.8396 58.5497 23C58.5497 24.1438 58.7676 25.1549 59.2034 26.0335C59.6559 26.8955 60.276 27.5668 61.0637 28.0476C61.8681 28.5117 62.7815 28.7438 63.8038 28.7438C64.7591 28.7438 65.5971 28.5366 66.3177 28.1221C67.0552 27.6912 67.625 27.0612 68.0272 26.2324H72.0746C71.488 28.0061 70.4573 29.3903 68.9825 30.3848C67.5244 31.3629 65.8066 31.8519 63.829 31.8519C62.153 31.8519 60.6363 31.4789 59.2788 30.733C57.938 29.9704 56.8738 28.9178 56.0861 27.5751C55.3152 26.2324 54.9297 24.7074 54.9297 23Z" fill="#3C5163"/>
<path d="M74.1757 24.7654C74.1757 23.373 74.4522 22.138 75.0053 21.0605C75.5751 19.983 76.3377 19.1542 77.293 18.574C78.265 17.9938 79.346 17.7038 80.5359 17.7038C81.575 17.7038 82.48 17.911 83.251 18.3254C84.0387 18.7398 84.6671 19.262 85.1364 19.8919V17.9275H88.681V31.7027H85.1364V29.6886C84.6839 30.3351 84.0554 30.8739 83.251 31.3048C82.4633 31.7193 81.5499 31.9265 80.5108 31.9265C79.3376 31.9265 78.265 31.6281 77.293 31.0313C76.3377 30.4346 75.5751 29.5975 75.0053 28.52C74.4522 27.4259 74.1757 26.1744 74.1757 24.7654ZM85.1364 24.8151C85.1364 23.9697 84.9688 23.2486 84.6336 22.6519C84.2984 22.0385 83.8459 21.5744 83.2761 21.2594C82.7063 20.9279 82.0946 20.7621 81.4409 20.7621C80.7873 20.7621 80.184 20.9196 79.6309 21.2346C79.0778 21.5495 78.6253 22.0137 78.2734 22.627C77.9382 23.2238 77.7706 23.9366 77.7706 24.7654C77.7706 25.5942 77.9382 26.3236 78.2734 26.9535C78.6253 27.5668 79.0778 28.0393 79.6309 28.3708C80.2007 28.7023 80.8041 28.8681 81.4409 28.8681C82.0946 28.8681 82.7063 28.7106 83.2761 28.3957C83.8459 28.0641 84.2984 27.6 84.6336 27.0032C84.9688 26.3899 85.1364 25.6605 85.1364 24.8151Z" fill="#3C5163"/>
<path d="M95.6379 13.3027V31.7027H92.1184V13.3027H95.6379Z" fill="#3C5163"/>
<path d="M102.635 13.3027V31.7027H99.1152V13.3027H102.635Z" fill="#3C5163"/>
<path d="M109.631 19.9167C110.084 19.2868 110.704 18.7647 111.492 18.3502C112.296 17.9193 113.21 17.7038 114.232 17.7038C115.422 17.7038 116.494 17.9938 117.45 18.574C118.422 19.1542 119.184 19.983 119.737 21.0605C120.307 22.1214 120.592 23.3564 120.592 24.7654C120.592 26.1744 120.307 27.4259 119.737 28.52C119.184 29.5975 118.422 30.4346 117.45 31.0313C116.494 31.6281 115.422 31.9265 114.232 31.9265C113.21 31.9265 112.305 31.7193 111.517 31.3048C110.746 30.8904 110.117 30.3683 109.631 29.7384V38.267H106.112V17.9275H109.631V19.9167ZM116.997 24.7654C116.997 23.9366 116.821 23.2238 116.469 22.627C116.134 22.0137 115.682 21.5495 115.112 21.2346C114.559 20.9196 113.955 20.7621 113.302 20.7621C112.665 20.7621 112.062 20.9279 111.492 21.2594C110.939 21.5744 110.486 22.0385 110.134 22.6519C109.799 23.2652 109.631 23.9863 109.631 24.8151C109.631 25.6439 109.799 26.365 110.134 26.9784C110.486 27.5917 110.939 28.0641 111.492 28.3957C112.062 28.7106 112.665 28.8681 113.302 28.8681C113.955 28.8681 114.559 28.7023 115.112 28.3708C115.682 28.0393 116.134 27.5668 116.469 26.9535C116.821 26.3402 116.997 25.6108 116.997 24.7654Z" fill="#3C5163"/>
<path d="M136.297 17.9275V31.7027H132.753V29.9621C132.3 30.5589 131.705 31.0313 130.968 31.3794C130.247 31.711 129.46 31.8767 128.605 31.8767C127.515 31.8767 126.552 31.653 125.714 31.2054C124.876 30.7412 124.214 30.0699 123.728 29.1913C123.259 28.2962 123.024 27.2353 123.024 26.0086V17.9275H126.543V25.5113C126.543 26.6054 126.82 27.4508 127.373 28.0476C127.926 28.6277 128.68 28.9178 129.636 28.9178C130.608 28.9178 131.37 28.6277 131.923 28.0476C132.476 27.4508 132.753 26.6054 132.753 25.5113V17.9275H136.297Z" fill="#3C5163"/>
<path d="M143.289 20.0659C143.742 19.3366 144.329 18.7647 145.049 18.3502C145.787 17.9358 146.625 17.7286 147.563 17.7286V21.3838H146.633C145.527 21.3838 144.689 21.6407 144.119 22.1546C143.566 22.6684 143.289 23.5636 143.289 24.84V31.7027H139.77V17.9275H143.289V20.0659Z" fill="#3C5163"/>
<path d="M151.719 16.2865C151.098 16.2865 150.579 16.0958 150.16 15.7146C149.758 15.3167 149.557 14.8277 149.557 14.2475C149.557 13.6674 149.758 13.1866 150.16 12.8054C150.579 12.4075 151.098 12.2086 151.719 12.2086C152.339 12.2086 152.85 12.4075 153.252 12.8054C153.671 13.1866 153.881 13.6674 153.881 14.2475C153.881 14.8277 153.671 15.3167 153.252 15.7146C152.85 16.0958 152.339 16.2865 151.719 16.2865ZM153.453 17.9275V31.7027H149.934V17.9275H153.453Z" fill="#3C5163"/>
<path d="M161.028 20.787V27.4508C161.028 27.9149 161.137 28.2548 161.355 28.4703C161.59 28.6692 161.975 28.7686 162.511 28.7686H164.145V31.7027H161.933C158.967 31.7027 157.483 30.2771 157.483 27.4259V20.787H155.824V17.9275H157.483V14.5211H161.028V17.9275H164.145V20.787H161.028Z" fill="#3C5163"/>
<path d="M180.001 17.9275L171.378 38.2173H167.632L170.649 31.3546L165.068 17.9275H169.015L172.61 27.5503L176.255 17.9275H180.001Z" fill="#3C5163"/>
</svg>
